<mxfile>
  <diagram id="ERD" name="ER-диаграмма для ресторана">
    <mxGraphModel dx="1204" dy="654" grid="1" gridSize="10" guides="1" tooltips="1" connect="1" arrows="1" fold="1" page="1" pageScale="1" pageWidth="827" pageHeight="1169" math="0" shadow="0">
      <root>
        <mxCell id="0"/>
        <mxCell id="1" parent="0"/>
        
        <!-- Таблицы -->
        <mxCell id="restaurants" value="<b>restaurants</b><hr/>id (PK)<br/>name<br/>address<br/>phone<br/>email<br/>opening_hours<br/>created_at" style="rounded=0;whiteSpace=wrap;html=1;" vertex="1" parent="1">
          <mxGeometry x="40" y="40" width="160" height="150" as="geometry"/>
        </mxCell>
        
        <mxCell id="staff" value="<b>staff</b><hr/>id (PK)<br/>full_name<br/>position<br/>restaurant_id (FK)<br/>hire_date<br/>salary<br/>contact_info" style="rounded=0;whiteSpace=wrap;html=1;" vertex="1" parent="1">
          <mxGeometry x="40" y="240" width="160" height="150" as="geometry"/>
        </mxCell>
        
        <!-- Связи -->
        <mxCell id="relation1" style="edgeStyle=orthogonalEdgeStyle;rounded=0;orthogonalLoop=1;jettySize=auto;html=1;exitX=0.5;exitY=0;exitDx=0;exitDy=0;entryX=0.5;entryY=1;entryDx=0;entryDy=0;" edge="1" parent="1" source="staff" target="restaurants">
          <mxGeometry relative="1" as="geometry"/>
        </mxCell>
      </root>
    </mxGraphModel>
  </diagram>
</mxfile>
